<svg width="126" height="28" viewBox="0 0 126 28" fill="none" xmlns="http://www.w3.org/2000/svg">
<path fill-rule="evenodd" clip-rule="evenodd" d="M3.88691 10.5085L5.59762 12.2192C6.0937 12.7153 6.0937 13.5273 5.59762 14.0234L3.88691 15.7341C3.39083 16.2302 2.57885 16.2302 2.08277 15.7341L0.372062 14.0234C-0.124021 13.5273 -0.124021 12.7153 0.372062 12.2192L2.08277 10.5085C2.57885 10.0125 3.38971 10.0125 3.88691 10.5085Z" fill="#06A39C"/>
<path fill-rule="evenodd" clip-rule="evenodd" d="M3.88691 20.4503L5.59762 22.161C6.0937 22.6571 6.0937 23.4691 5.59762 23.9651L3.88691 25.6758C3.39083 26.1719 2.57885 26.1719 2.08277 25.6758L0.372062 23.9651C-0.124021 23.4691 -0.124021 22.6571 0.372062 22.161L2.08277 20.4503C2.57885 19.9531 3.38971 19.9531 3.88691 20.4503Z" fill="#06A39C"/>
<path fill-rule="evenodd" clip-rule="evenodd" d="M13.8274 0.566887L15.5381 2.2776C16.0342 2.77368 16.0342 3.58566 15.5381 4.08174L13.8274 5.79245C13.3313 6.28853 12.5193 6.28853 12.0232 5.79245L10.3125 4.08174C9.81645 3.58566 9.81645 2.77368 10.3125 2.2776L12.0232 0.566887C12.5204 0.0708034 13.3313 0.0708034 13.8274 0.566887Z" fill="#30D2A3"/>
<path fill-rule="evenodd" clip-rule="evenodd" d="M13.8274 10.5085L15.5381 12.2192C16.0342 12.7153 16.0342 13.5273 15.5381 14.0234L13.8274 15.7341C13.3313 16.2302 12.5193 16.2302 12.0232 15.7341L10.3125 14.0234C9.81645 13.5273 9.81645 12.7153 10.3125 12.2192L12.0232 10.5085C12.5204 10.0125 13.3313 10.0125 13.8274 10.5085Z" fill="#30D2A3"/>
<path fill-rule="evenodd" clip-rule="evenodd" d="M13.8274 20.4503L15.5381 22.161C16.0342 22.6571 16.0342 23.4691 15.5381 23.9651L13.8274 25.6758C13.3313 26.1719 12.5193 26.1719 12.0232 25.6758L10.3125 23.9651C9.81645 23.4691 9.81645 22.6571 10.3125 22.161L12.0232 20.4503C12.5204 19.9531 13.3313 19.9531 13.8274 20.4503Z" fill="#06A39C"/>
<path fill-rule="evenodd" clip-rule="evenodd" d="M23.7693 0.566887L25.48 2.2776C25.9761 2.77368 25.9761 3.58566 25.48 4.08174L23.7693 5.79245C23.2732 6.28853 22.4613 6.28853 21.9652 5.79245L20.2545 4.08174C19.7584 3.58566 19.7584 2.77368 20.2545 2.2776L21.9652 0.566887C22.4613 0.0708034 23.2732 0.0708034 23.7693 0.566887Z" fill="#30D2A3"/>
<path fill-rule="evenodd" clip-rule="evenodd" d="M23.7693 10.5085L25.48 12.2192C25.9761 12.7153 25.9761 13.5273 25.48 14.0234L23.7693 15.7341C23.2732 16.2302 22.4613 16.2302 21.9652 15.7341L20.2545 14.0234C19.7584 13.5273 19.7584 12.7153 20.2545 12.2192L21.9652 10.5085C22.4613 10.0125 23.2732 10.0125 23.7693 10.5085Z" fill="#30D2A3"/>
<path fill-rule="evenodd" clip-rule="evenodd" d="M23.7693 20.4503L25.48 22.161C25.9761 22.6571 25.9761 23.4691 25.48 23.9651L23.7693 25.6758C23.2732 26.1719 22.4613 26.1719 21.9652 25.6758L20.2545 23.9651C19.7584 23.4691 19.7584 22.6571 20.2545 22.161L21.9652 20.4503C22.4613 19.9531 23.2732 19.9531 23.7693 20.4503Z" fill="#06A39C"/>
<path fill-rule="evenodd" clip-rule="evenodd" d="M3.88691 0.566887L5.59762 2.2776C6.0937 2.77368 6.0937 3.58566 5.59762 4.08174L3.88691 5.79245C3.39083 6.28853 2.57885 6.28853 2.08277 5.79245L0.372062 4.08174C-0.124021 3.58566 -0.124021 2.77368 0.372062 2.2776L2.08277 0.566887C2.57885 0.0708034 3.38971 0.0708034 3.88691 0.566887Z" fill="#30D2A3"/>
<path fill-rule="evenodd" clip-rule="evenodd" d="M40.7539 15.2157L41.339 16.6895C41.409 16.8763 41.5492 16.9464 41.736 16.8763L43.3967 16.338C43.6536 16.2679 43.677 16.0577 43.6069 15.8697L43.3033 14.8876C43.0463 14.0456 42.9996 13.1802 42.9996 12.2448V8.17488C42.9996 5.01707 40.497 3.77798 37.7374 3.77798C35.3982 3.77798 33.8087 4.40976 32.2415 5.55543C32.078 5.67222 32.0313 5.90579 32.1948 6.09377L33.1069 7.37958C33.2237 7.54309 33.4806 7.56645 33.6686 7.44966C34.9789 6.63101 36.0311 6.32736 37.7385 6.32736C39.1422 6.32736 40.2878 6.77228 40.2878 7.87122V8.15151L36.1712 8.68987C33.2949 9.0636 31.5875 10.5607 31.5875 12.9233C31.5875 15.3091 33.4584 16.8997 36.1479 16.8997C38.0188 16.8997 39.4926 16.3146 40.6382 15.2157H40.7539ZM40.2856 12.5729C39.467 13.6718 38.2045 14.3503 36.4271 14.3503C34.9533 14.3503 34.2993 13.7419 34.2993 12.7831C34.2993 11.9645 34.8843 11.3327 36.1701 11.1225L40.2867 10.444V12.5729H40.2856ZM46.3198 0.247559C46.1096 0.247559 45.9928 0.36435 45.9928 0.574573V16.3847C45.9928 16.5949 46.1096 16.7117 46.3198 16.7117H47.9104C48.0973 16.7117 48.214 16.6183 48.2608 16.4314L48.4476 15.5894L48.6111 15.5661C49.5699 16.5015 50.9503 16.8997 52.3762 16.8997C56.118 16.8997 58.9488 14.2569 58.9488 10.3283C58.9488 6.39965 56.1892 3.7802 52.3762 3.7802C50.9725 3.7802 49.8035 4.13058 48.7046 5.04266V0.575686C48.7046 0.365463 48.5878 0.248672 48.3776 0.248672L46.3198 0.247559ZM48.7057 7.87233C49.7112 6.84346 50.7167 6.35182 52.3774 6.35182C54.5997 6.35182 56.2593 7.89569 56.2593 10.3283C56.2593 12.7842 54.5986 14.3281 52.3774 14.3281C50.8101 14.3281 49.7112 13.8365 48.7057 12.7375V7.87233ZM61.1478 3.96595C60.9376 3.96595 60.8208 4.08275 60.8208 4.29297V11.3093C60.8208 15.1912 62.9486 16.8986 66.1298 16.8986C67.5335 16.8986 68.8193 16.5015 69.9182 15.4949H70.0584L70.2686 16.4303C70.3153 16.6172 70.4321 16.7106 70.6423 16.7106H72.303C72.5132 16.7106 72.63 16.5938 72.63 16.3836V4.29408C72.63 4.08386 72.5132 3.96707 72.303 3.96707H70.2452C70.035 3.96707 69.9182 4.08386 69.9182 4.29408V12.6908C69.0762 13.7897 67.7192 14.3281 66.4101 14.3281C64.4458 14.3281 63.5337 13.3693 63.5337 11.1469V4.29408C63.5337 4.08386 63.4169 3.96707 63.2066 3.96707H61.1478V3.96595ZM76.4196 4.01268L74.8991 4.15283C74.7122 4.17618 74.6188 4.29297 74.6188 4.45648V6.16385C74.6188 6.37407 74.7356 6.49086 74.9458 6.49086H76.3962V12.6185C76.3962 15.1211 77.612 16.8986 80.4194 16.8986C81.6118 16.8986 82.5005 16.6417 83.3659 16.0799C83.5761 15.9632 83.6228 15.823 83.5294 15.6117L82.8976 14.1145C82.8275 13.951 82.6874 13.8576 82.4293 13.9744C81.9377 14.2313 81.3771 14.3481 80.7453 14.3481C79.7398 14.3481 79.108 13.7397 79.108 12.5473V6.48975H82.5695C82.7797 6.48975 82.8965 6.37296 82.8965 6.16273V4.29186C82.8965 4.08164 82.7797 3.96485 82.5695 3.96485H79.108V1.48554C79.108 1.27532 78.9445 1.15853 78.781 1.15853H77.0047C76.8178 1.15853 76.701 1.27532 76.6776 1.48554L76.4196 4.01268ZM95.9726 13.0412C95.8558 12.901 95.7157 12.901 95.5989 13.0178C94.3831 14.0233 93.1196 14.3514 91.529 14.3514C89.4712 14.3514 88.0208 13.2291 87.5759 11.6152H97.5854C97.7723 11.6152 97.8657 11.4984 97.8657 11.2882V10.3527C97.8657 6.54092 95.1996 3.7802 91.4111 3.7802C87.5992 3.7802 84.7451 6.53981 84.7451 10.3527C84.7451 14.1179 87.5281 16.9008 91.5279 16.9008C93.3988 16.9008 95.3864 16.3625 97.0704 14.9365C97.1872 14.8197 97.2106 14.6796 97.0938 14.5628L95.9726 13.0412ZM91.4111 6.32847C93.2586 6.32847 94.9193 7.45077 95.1061 9.08807H87.5514C87.9263 7.47413 89.5168 6.32847 91.4111 6.32847ZM106.332 3.77909C102.591 3.77909 99.7366 6.53869 99.7366 10.3038C99.7366 14.0689 102.59 16.8997 106.332 16.8997C108.672 16.8997 110.706 15.8708 111.898 13.9065C111.992 13.7897 111.968 13.6496 111.852 13.5328L110.378 12.3638C110.238 12.247 110.121 12.247 110.004 12.3638C109.045 13.7675 107.923 14.3281 106.332 14.3281C104.017 14.3281 102.451 12.6207 102.451 10.3049C102.451 7.98912 103.994 6.35182 106.332 6.35182C107.923 6.35182 108.975 6.93689 109.934 8.24606C110.028 8.36285 110.214 8.45629 110.378 8.29278L111.852 7.17047C111.968 7.07704 111.992 6.96025 111.898 6.79674C110.777 4.87804 108.532 3.77909 106.332 3.77909ZM114.519 0.247559C114.309 0.247559 114.192 0.36435 114.192 0.574573V16.3847C114.192 16.5949 114.309 16.7117 114.519 16.7117H116.577C116.787 16.7117 116.904 16.5949 116.904 16.3847V7.82561C117.839 6.79674 118.938 6.35182 120.318 6.35182C122.189 6.35182 123.288 7.42741 123.288 9.67313V16.3858C123.288 16.596 123.405 16.7128 123.615 16.7128H125.673C125.883 16.7128 126 16.596 126 16.3858V9.5797C126 5.74451 123.614 3.77909 120.317 3.77909C119.007 3.77909 117.861 4.15282 116.903 5.0649V0.574573C116.903 0.36435 116.786 0.247559 116.576 0.247559H114.519Z" fill="#00094A"/>
<path fill-rule="evenodd" clip-rule="evenodd" d="M33.5563 25.4868C33.9134 25.4868 34.2037 25.3578 34.4295 25.1009C34.6653 24.8439 34.7832 24.508 34.7832 24.0942C34.7832 23.6905 34.6653 23.3568 34.4295 23.0954C34.1981 22.8329 33.9078 22.7016 33.5563 22.7016C33.2104 22.7016 32.919 22.8329 32.6832 23.0954C32.4474 23.3579 32.3295 23.6905 32.3295 24.0942C32.3295 24.5036 32.4474 24.8361 32.6832 25.0931C32.919 25.3567 33.2104 25.4868 33.5563 25.4868ZM33.4384 26.1487C32.9346 26.1487 32.5019 25.9496 32.1404 25.5502C31.7833 25.1465 31.6054 24.6615 31.6054 24.0942C31.6054 23.5281 31.7833 23.042 32.1404 22.6382C32.5019 22.24 32.9346 22.0398 33.4384 22.0398C33.7221 22.0398 33.9801 22.0999 34.2137 22.2211C34.4473 22.3413 34.6264 22.5014 34.7532 22.7005H34.7843L34.7532 22.1655V20.387H35.4773V26.0207H34.7854V25.4857H34.7543C34.6286 25.6848 34.4484 25.845 34.2148 25.9651C33.9801 26.0875 33.7221 26.1487 33.4384 26.1487ZM37.2936 20.8375C37.2936 20.9787 37.2436 21.1 37.1446 21.1989C37.0445 21.2991 36.9244 21.348 36.7831 21.348C36.6418 21.348 36.5206 21.2979 36.4216 21.1989C36.3215 21.0988 36.2726 20.9787 36.2726 20.8375C36.2726 20.6962 36.3226 20.5749 36.4216 20.476C36.5217 20.3758 36.6418 20.3269 36.7831 20.3269C36.9244 20.3269 37.0456 20.377 37.1446 20.476C37.2436 20.5749 37.2936 20.6962 37.2936 20.8375ZM37.1446 22.1666V26.0219H36.4205V22.1666H37.1446ZM39.7796 25.4868C40.1367 25.4868 40.427 25.3578 40.6528 25.1009C40.8886 24.8439 41.0065 24.508 41.0065 24.0942C41.0065 23.6905 40.8886 23.3568 40.6528 23.0954C40.4214 22.8329 40.1311 22.7016 39.7796 22.7016C39.4337 22.7016 39.1423 22.8329 38.9065 23.0954C38.6707 23.3579 38.5528 23.6905 38.5528 24.0942C38.5528 24.5036 38.6707 24.8361 38.9065 25.0931C39.1423 25.3567 39.4337 25.4868 39.7796 25.4868ZM39.7563 27.8482C39.5416 27.8482 39.3392 27.8204 39.1501 27.7659C38.961 27.7103 38.7897 27.6336 38.6351 27.5335C38.4805 27.4333 38.3481 27.3154 38.238 27.1797C38.1279 27.0429 38.0444 26.8917 37.9866 26.7237L38.6707 26.4401C38.7496 26.6659 38.8853 26.8461 39.08 26.9829C39.2735 27.1197 39.4993 27.1875 39.7563 27.1875C40.15 27.1875 40.457 27.0696 40.6772 26.8338C40.8975 26.598 41.0076 26.2721 41.0076 25.8583V25.4891H40.9764C40.8396 25.6937 40.655 25.855 40.4214 25.9729C40.1878 26.0908 39.9353 26.1498 39.6617 26.1498C39.1578 26.1498 38.7252 25.9529 38.3637 25.5591C38.0066 25.1554 37.8287 24.6671 37.8287 24.0954C37.8287 23.5236 38.0066 23.0387 38.3637 22.6394C38.7252 22.2412 39.1578 22.0409 39.6617 22.0409C39.9342 22.0409 40.1878 22.0999 40.4214 22.2178C40.655 22.3357 40.8396 22.497 40.9764 22.7016H41.0076V22.1666H41.6994V25.8572C41.6994 26.4757 41.5237 26.9617 41.1722 27.3132C40.8163 27.6692 40.3436 27.8482 39.7563 27.8482ZM43.5169 20.8375C43.5169 20.9787 43.4669 21.1 43.3679 21.1989C43.2678 21.2991 43.1476 21.348 43.0064 21.348C42.8651 21.348 42.7439 21.2979 42.6449 21.1989C42.5448 21.0988 42.4958 20.9787 42.4958 20.8375C42.4958 20.6962 42.5459 20.5749 42.6449 20.476C42.745 20.3758 42.8651 20.3269 43.0064 20.3269C43.1476 20.3269 43.2689 20.377 43.3679 20.476C43.4669 20.5749 43.5169 20.6962 43.5169 20.8375ZM43.3679 22.1666V26.0219H42.6438V22.1666H43.3679ZM45.7993 26.0853C45.4846 26.0853 45.2232 25.9885 45.0163 25.7938C44.8094 25.6003 44.7026 25.33 44.6982 24.983V22.8273H44.0219V22.1666H44.6982V20.9865H45.4223V22.1666H46.3666V22.8273H45.4223V24.7472C45.4223 25.0041 45.4723 25.1787 45.5713 25.2699C45.6714 25.3623 45.7838 25.4079 45.9095 25.4079C45.9673 25.4079 46.024 25.4012 46.0785 25.3878C46.1341 25.3745 46.1853 25.3578 46.232 25.3367L46.4601 25.9818C46.271 26.0508 46.0507 26.0853 45.7993 26.0853ZM47.5067 24.8417C47.5067 25.0308 47.5868 25.1876 47.747 25.3133C47.9071 25.439 48.094 25.5024 48.3098 25.5024C48.6146 25.5024 48.886 25.3901 49.124 25.1643C49.3631 24.9385 49.4822 24.6737 49.4822 24.3701C49.2564 24.1921 48.9416 24.1031 48.5378 24.1031C48.2442 24.1031 47.9984 24.1743 47.8026 24.3156C47.6046 24.4568 47.5067 24.6326 47.5067 24.8417ZM48.4422 22.0409C48.9772 22.0409 49.3998 22.1833 49.7091 22.4703C50.0183 22.7562 50.1729 23.1488 50.1729 23.646V26.0219H49.481V25.4868H49.4499C49.1507 25.9273 48.7525 26.1475 48.2542 26.1475C47.8293 26.1475 47.4745 26.0218 47.1886 25.7694C46.9027 25.518 46.7593 25.2032 46.7593 24.825C46.7593 24.4268 46.9105 24.1087 47.212 23.8729C47.5134 23.6371 47.916 23.5192 48.4199 23.5192C48.8504 23.5192 49.2041 23.5982 49.4822 23.755V23.5893C49.4822 23.3379 49.382 23.1232 49.1829 22.9475C48.9838 22.7717 48.7503 22.6839 48.4822 22.6839C48.0784 22.6839 47.7581 22.854 47.5223 23.1955L46.8849 22.794C47.2364 22.2934 47.7559 22.0409 48.4422 22.0409ZM51.7156 20.3892V26.023H50.9915V20.3892H51.7156ZM56.0903 26.1487C55.5186 26.1487 55.0436 25.9551 54.6666 25.5669C54.2939 25.1687 54.1082 24.6782 54.1082 24.0954C54.1082 23.5025 54.2939 23.012 54.6666 22.6238C55.0447 22.2356 55.5186 22.0421 56.0903 22.0421C56.484 22.0421 56.8277 22.1399 57.1214 22.3368C57.415 22.5337 57.6353 22.8051 57.7821 23.151L57.1214 23.4269C56.9167 22.9441 56.5575 22.7028 56.0436 22.7028C55.7132 22.7028 55.4274 22.8362 55.186 23.1043C54.9502 23.3712 54.8323 23.7027 54.8323 24.0954C54.8323 24.4891 54.9502 24.8195 55.186 25.0864C55.4274 25.3534 55.7132 25.488 56.0436 25.488C56.573 25.488 56.9456 25.2466 57.1603 24.7638L57.8054 25.0397C57.6642 25.3856 57.4417 25.657 57.1403 25.8539C56.8389 26.0497 56.4885 26.1487 56.0903 26.1487ZM58.1747 24.0942C58.1747 23.5014 58.3605 23.0109 58.7331 22.6227C59.1113 22.2345 59.5851 22.0409 60.1568 22.0409C60.7285 22.0409 61.2002 22.2345 61.5728 22.6227C61.951 23.0109 62.1389 23.5014 62.1389 24.0942C62.1389 24.6927 61.9498 25.1832 61.5728 25.5658C61.2002 25.954 60.7285 26.1475 60.1568 26.1475C59.5851 26.1475 59.1102 25.954 58.7331 25.5658C58.3616 25.1776 58.1747 24.6871 58.1747 24.0942ZM58.8988 24.0942C58.8988 24.5091 59.019 24.8439 59.2603 25.1009C59.5017 25.3578 59.8009 25.4868 60.1568 25.4868C60.5139 25.4868 60.812 25.3578 61.0533 25.1009C61.2947 24.8439 61.4148 24.508 61.4148 24.0942C61.4148 23.6849 61.2947 23.3523 61.0533 23.0954C60.8064 22.8329 60.5083 22.7016 60.1568 22.7016C59.8053 22.7016 59.5061 22.8329 59.2603 23.0954C59.0201 23.3523 58.8988 23.686 58.8988 24.0942ZM63.447 26.023H62.7229V22.1677H63.4147V22.7028H63.4459C63.556 22.5137 63.7251 22.3568 63.9531 22.2312C64.1811 22.1055 64.408 22.0421 64.6338 22.0421C64.9174 22.0421 65.1666 22.1077 65.3813 22.2389C65.5959 22.3702 65.7539 22.5515 65.8529 22.7817C66.1732 22.289 66.6159 22.0421 67.1821 22.0421C67.6281 22.0421 67.9718 22.1789 68.2132 22.4514C68.4545 22.7239 68.5747 23.1121 68.5747 23.616V26.0241H67.8506V23.7272C67.8506 23.3657 67.7849 23.1043 67.6537 22.9441C67.5224 22.784 67.3022 22.7039 66.993 22.7039C66.7149 22.7039 66.4813 22.8218 66.2922 23.0576C66.1032 23.2934 66.0086 23.5715 66.0086 23.8918V26.0241H65.2845V23.7272C65.2845 23.3657 65.2189 23.1043 65.0876 22.9441C64.9564 22.784 64.7361 22.7039 64.4269 22.7039C64.1489 22.7039 63.9153 22.8218 63.7262 23.0576C63.5371 23.2934 63.4425 23.5715 63.4425 23.8918V26.023H63.447ZM71.3142 25.4868C71.6602 25.4868 71.9516 25.3556 72.1874 25.0931C72.4232 24.8361 72.5411 24.5025 72.5411 24.0942C72.5411 23.6905 72.4232 23.3568 72.1874 23.0954C71.9516 22.8329 71.6602 22.7016 71.3142 22.7016C70.9628 22.7016 70.6691 22.8329 70.4333 23.0954C70.202 23.3579 70.0874 23.6905 70.0874 24.0942C70.0874 24.5036 70.2031 24.8395 70.4333 25.1009C70.6691 25.3589 70.9628 25.4868 71.3142 25.4868ZM71.4333 26.1487C71.1496 26.1487 70.8916 26.0886 70.658 25.9673C70.4244 25.8472 70.2453 25.6871 70.1185 25.488H70.0874L70.1185 26.023V27.7225H69.3944V22.1677H70.0863V22.7028H70.1174C70.2431 22.5037 70.4233 22.3435 70.6569 22.2234C70.8905 22.1032 71.1485 22.0421 71.4321 22.0421C71.9405 22.0421 72.3709 22.2412 72.7224 22.6405C73.0839 23.0442 73.2652 23.5292 73.2652 24.0965C73.2652 24.6682 73.0839 25.1531 72.7224 25.5525C72.372 25.9484 71.9416 26.1487 71.4333 26.1487ZM74.4542 24.8417C74.4542 25.0308 74.5343 25.1876 74.6945 25.3133C74.8547 25.439 75.0415 25.5024 75.2573 25.5024C75.5621 25.5024 75.8335 25.3901 76.0715 25.1643C76.3107 24.9385 76.4297 24.6737 76.4297 24.3701C76.2039 24.1921 75.8891 24.1031 75.4853 24.1031C75.1917 24.1031 74.9459 24.1743 74.7501 24.3156C74.5521 24.4568 74.4542 24.6326 74.4542 24.8417ZM75.3908 22.0409C75.9258 22.0409 76.3485 22.1833 76.6577 22.4703C76.9669 22.7562 77.1215 23.1488 77.1215 23.646V26.0219H76.4297V25.4868H76.3985C76.0993 25.9273 75.7011 26.1475 75.2028 26.1475C74.7779 26.1475 74.4231 26.0218 74.1372 25.7694C73.8514 25.518 73.7079 25.2032 73.7079 24.825C73.7079 24.4268 73.8592 24.1087 74.1606 23.8729C74.462 23.6371 74.8647 23.5192 75.3686 23.5192C75.799 23.5192 76.1527 23.5982 76.4308 23.755V23.5893C76.4308 23.3379 76.3307 23.1232 76.1316 22.9475C75.9325 22.7717 75.6989 22.6839 75.4308 22.6839C75.0271 22.6839 74.7067 22.854 74.4709 23.1955L73.8336 22.794C74.184 22.2934 74.7034 22.0409 75.3908 22.0409ZM77.9391 22.1666H78.6309V22.7016H78.6621C78.7722 22.5126 78.9412 22.3557 79.1693 22.23C79.3973 22.1043 79.6342 22.0409 79.8811 22.0409C80.3527 22.0409 80.7165 22.1755 80.9712 22.4458C81.2259 22.7161 81.3527 23.0998 81.3527 23.5982V26.0219H80.6286V23.646C80.613 23.0164 80.296 22.7016 79.6765 22.7016C79.3884 22.7016 79.147 22.8184 78.9524 23.052C78.7588 23.2856 78.6609 23.5648 78.6609 23.8896V26.0219H77.9368V22.1666H77.9391ZM85.5716 22.1666L83.1557 27.7214H82.4083L83.3048 25.7783L81.7153 22.1666H82.5017L83.6507 24.9363H83.6663L84.783 22.1666H85.5716Z" fill="#00094A"/>
</svg>
